<mxfile host="Electron" modified="2023-11-09T08:40:59.815Z" agent="Mozilla/5.0 (Windows NT 10.0; Win64; x64) AppleWebKit/537.36 (KHTML, like Gecko) draw.io/22.0.3 Chrome/114.0.5735.289 Electron/25.8.4 Safari/537.36" etag="WqC-nfCjPyPYA8sKMSj8" version="22.0.3" type="device">
  <diagram id="C5RBs43oDa-KdzZeNtuy" name="Page-1">
    <mxGraphModel dx="1036" dy="606" grid="1" gridSize="10" guides="1" tooltips="1" connect="1" arrows="1" fold="1" page="1" pageScale="1" pageWidth="827" pageHeight="1169" math="0" shadow="0">
      <root>
        <mxCell id="WIyWlLk6GJQsqaUBKTNV-0" />
        <mxCell id="WIyWlLk6GJQsqaUBKTNV-1" parent="WIyWlLk6GJQsqaUBKTNV-0" />
        <mxCell id="afgc6z-RETcrpsBKofpW-2" value="" style="edgeStyle=orthogonalEdgeStyle;rounded=0;orthogonalLoop=1;jettySize=auto;html=1;" edge="1" parent="WIyWlLk6GJQsqaUBKTNV-1" source="afgc6z-RETcrpsBKofpW-0" target="afgc6z-RETcrpsBKofpW-1">
          <mxGeometry relative="1" as="geometry" />
        </mxCell>
        <mxCell id="afgc6z-RETcrpsBKofpW-0" value="start" style="ellipse;whiteSpace=wrap;html=1;" vertex="1" parent="WIyWlLk6GJQsqaUBKTNV-1">
          <mxGeometry x="330" y="40" width="120" height="80" as="geometry" />
        </mxCell>
        <mxCell id="afgc6z-RETcrpsBKofpW-4" value="" style="edgeStyle=orthogonalEdgeStyle;rounded=0;orthogonalLoop=1;jettySize=auto;html=1;" edge="1" parent="WIyWlLk6GJQsqaUBKTNV-1" source="afgc6z-RETcrpsBKofpW-1" target="afgc6z-RETcrpsBKofpW-3">
          <mxGeometry relative="1" as="geometry" />
        </mxCell>
        <mxCell id="afgc6z-RETcrpsBKofpW-1" value="number" style="shape=parallelogram;perimeter=parallelogramPerimeter;whiteSpace=wrap;html=1;fixedSize=1;" vertex="1" parent="WIyWlLk6GJQsqaUBKTNV-1">
          <mxGeometry x="330" y="160" width="120" height="60" as="geometry" />
        </mxCell>
        <mxCell id="afgc6z-RETcrpsBKofpW-6" value="" style="edgeStyle=orthogonalEdgeStyle;rounded=0;orthogonalLoop=1;jettySize=auto;html=1;" edge="1" parent="WIyWlLk6GJQsqaUBKTNV-1" source="afgc6z-RETcrpsBKofpW-3" target="afgc6z-RETcrpsBKofpW-5">
          <mxGeometry relative="1" as="geometry" />
        </mxCell>
        <mxCell id="afgc6z-RETcrpsBKofpW-9" value="" style="edgeStyle=orthogonalEdgeStyle;rounded=0;orthogonalLoop=1;jettySize=auto;html=1;" edge="1" parent="WIyWlLk6GJQsqaUBKTNV-1" source="afgc6z-RETcrpsBKofpW-3" target="afgc6z-RETcrpsBKofpW-8">
          <mxGeometry relative="1" as="geometry" />
        </mxCell>
        <mxCell id="afgc6z-RETcrpsBKofpW-3" value="number chia het 2?" style="rhombus;whiteSpace=wrap;html=1;" vertex="1" parent="WIyWlLk6GJQsqaUBKTNV-1">
          <mxGeometry x="350" y="250" width="80" height="80" as="geometry" />
        </mxCell>
        <mxCell id="afgc6z-RETcrpsBKofpW-11" value="" style="edgeStyle=orthogonalEdgeStyle;rounded=0;orthogonalLoop=1;jettySize=auto;html=1;" edge="1" parent="WIyWlLk6GJQsqaUBKTNV-1" source="afgc6z-RETcrpsBKofpW-5" target="afgc6z-RETcrpsBKofpW-10">
          <mxGeometry relative="1" as="geometry">
            <Array as="points">
              <mxPoint x="520" y="380" />
              <mxPoint x="520" y="380" />
            </Array>
          </mxGeometry>
        </mxCell>
        <mxCell id="afgc6z-RETcrpsBKofpW-5" value="so chan" style="shape=parallelogram;perimeter=parallelogramPerimeter;whiteSpace=wrap;html=1;fixedSize=1;" vertex="1" parent="WIyWlLk6GJQsqaUBKTNV-1">
          <mxGeometry x="460" y="260" width="120" height="60" as="geometry" />
        </mxCell>
        <mxCell id="afgc6z-RETcrpsBKofpW-7" value="true" style="text;html=1;align=center;verticalAlign=middle;resizable=0;points=[];autosize=1;strokeColor=none;fillColor=none;" vertex="1" parent="WIyWlLk6GJQsqaUBKTNV-1">
          <mxGeometry x="420" y="258" width="40" height="30" as="geometry" />
        </mxCell>
        <mxCell id="afgc6z-RETcrpsBKofpW-8" value="so le" style="shape=parallelogram;perimeter=parallelogramPerimeter;whiteSpace=wrap;html=1;fixedSize=1;" vertex="1" parent="WIyWlLk6GJQsqaUBKTNV-1">
          <mxGeometry x="330" y="400" width="120" height="60" as="geometry" />
        </mxCell>
        <mxCell id="afgc6z-RETcrpsBKofpW-10" value="end" style="ellipse;whiteSpace=wrap;html=1;" vertex="1" parent="WIyWlLk6GJQsqaUBKTNV-1">
          <mxGeometry x="500" y="400" width="120" height="80" as="geometry" />
        </mxCell>
        <mxCell id="afgc6z-RETcrpsBKofpW-12" style="edgeStyle=orthogonalEdgeStyle;rounded=0;orthogonalLoop=1;jettySize=auto;html=1;exitX=1;exitY=0.5;exitDx=0;exitDy=0;entryX=0.02;entryY=0.388;entryDx=0;entryDy=0;entryPerimeter=0;" edge="1" parent="WIyWlLk6GJQsqaUBKTNV-1" source="afgc6z-RETcrpsBKofpW-8" target="afgc6z-RETcrpsBKofpW-10">
          <mxGeometry relative="1" as="geometry">
            <Array as="points">
              <mxPoint x="475" y="430" />
              <mxPoint x="475" y="431" />
            </Array>
          </mxGeometry>
        </mxCell>
        <mxCell id="afgc6z-RETcrpsBKofpW-13" value="false" style="text;html=1;align=center;verticalAlign=middle;resizable=0;points=[];autosize=1;strokeColor=none;fillColor=none;" vertex="1" parent="WIyWlLk6GJQsqaUBKTNV-1">
          <mxGeometry x="335" y="348" width="50" height="30" as="geometry" />
        </mxCell>
      </root>
    </mxGraphModel>
  </diagram>
</mxfile>
